<svg width="256" height="256" viewBox="0 0 256 256" fill="none" xmlns="http://www.w3.org/2000/svg">
<rect width="256" height="256" rx="25" fill="#121212"/>
<path d="M133.75 123C130.917 123 128.167 123.208 125.5 123.625C122.917 124.042 120.5 124.5 118.25 125C116 125.417 114 125.833 112.25 126.25C110.5 126.667 109.125 126.875 108.125 126.875C107.208 126.875 106.25 126.5 105.25 125.75C104.333 124.917 103.5 123.875 102.75 122.625C102 121.375 101.375 120 100.875 118.5C100.375 117 100.125 115.542 100.125 114.125C100.125 112.875 101 111.125 102.75 108.875C104.583 106.625 106.792 104.083 109.375 101.25C112.042 98.4167 114.917 95.375 118 92.125C121.167 88.875 124.042 85.625 126.625 82.375C129.292 79.125 131.5 76 133.25 73C135.083 69.9167 136 67.125 136 64.625C136 61.7917 134.958 59.7083 132.875 58.375C130.792 56.9583 128.083 56.25 124.75 56.25C120.167 56.25 115.583 56.7917 111 57.875C106.5 58.9583 102.292 60.1667 98.375 61.5C94.4583 62.8333 90.9167 64.0417 87.75 65.125C84.6667 66.2083 82.25 66.75 80.5 66.75C79.3333 66.75 78.2083 66.4167 77.125 65.75C76.125 65.0833 75.2083 64.2083 74.375 63.125C73.5417 61.9583 72.875 60.625 72.375 59.125C71.9583 57.625 71.75 56.0417 71.75 54.375C71.75 51.4583 72.2083 48.9167 73.125 46.75C74.125 44.5 75.4583 43.0417 77.125 42.375C80.2917 41.2083 84.0417 40.125 88.375 39.125C92.7917 38.0417 97.375 37.0833 102.125 36.25C106.875 35.4167 111.583 34.7917 116.25 34.375C121 33.875 125.292 33.625 129.125 33.625C139.458 33.625 147.333 35.7083 152.75 39.875C158.167 43.9583 160.875 49.9167 160.875 57.75C160.875 61.25 160.417 64.5417 159.5 67.625C158.667 70.7083 157.292 73.7917 155.375 76.875C153.542 79.9583 151.208 83.1667 148.375 86.5C145.542 89.75 142.125 93.2917 138.125 97.125C136.542 98.7083 135.75 100 135.75 101C135.75 102.417 137.292 103.292 140.375 103.625C148.458 104.042 155.583 105.458 161.75 107.875C168 110.292 173.25 113.583 177.5 117.75C181.75 121.917 184.958 126.875 187.125 132.625C189.375 138.292 190.5 144.667 190.5 151.75C190.5 160.5 188.875 168.667 185.625 176.25C182.458 183.917 178.042 190.542 172.375 196.125C166.792 201.792 160.208 206.25 152.625 209.5C145.042 212.75 136.875 214.375 128.125 214.375C120.375 214.375 113.125 213.167 106.375 210.75C99.625 208.417 93.75 205.167 88.75 201C83.8333 196.917 79.9167 192.083 77 186.5C74.1667 181 72.75 175.042 72.75 168.625C72.75 165.625 73.0833 162.583 73.75 159.5C74.4167 156.5 75.2917 153.792 76.375 151.375C77.4583 148.958 78.6667 147 80 145.5C81.3333 144 82.6667 143.25 84 143.25C86.0833 143.25 88.0833 143.5 90 144C92 144.417 93.75 145.042 95.25 145.875C96.8333 146.625 98.0833 147.5 99 148.5C100 149.5 100.5 150.5 100.5 151.5C100.5 152.333 100.333 153.167 100 154C99.75 154.917 99.4583 155.875 99.125 156.875C98.875 157.958 98.5833 159.083 98.25 160.25C98 161.417 97.875 162.667 97.875 164C97.875 167.75 98.7083 171.292 100.375 174.625C102.125 178.042 104.458 181 107.375 183.5C110.292 186 113.708 187.958 117.625 189.375C121.542 190.875 125.708 191.625 130.125 191.625C135.458 191.625 140.292 190.708 144.625 188.875C149.042 187.125 152.792 184.583 155.875 181.25C159.042 178 161.458 174.083 163.125 169.5C164.875 165 165.75 160 165.75 154.5C165.75 150 164.917 145.833 163.25 142C161.667 138.167 159.458 134.875 156.625 132.125C153.792 129.292 150.417 127.083 146.5 125.5C142.583 123.833 138.333 123 133.75 123Z" fill="white"/>
</svg>
